<svg xmlns="http://www.w3.org/2000/svg" xmlns:xlink="http://www.w3.org/1999/xlink" width="36" height="29" viewBox="0 0 36 29"><defs><path id="a" d="M16.166.032v27.623H.075V.032h16.09z"/><path id="c" d="M0 27.61V.258h15.904V27.61z"/></defs><g fill="none" fill-rule="evenodd"><g transform="translate(19.695 .57)"><mask id="b" fill="#fff"><use xlink:href="#a"/></mask><path fill="#DFD6C4" d="M14.863 22.157c.584-1.083 1.488-2.765 1.27-4.734-.176-1.565-.944-2.273-2.747-4.524-3.314-4.137-4.969-6.25-4.862-8.375.12-2.405 1.897-3.91 1.473-4.382-.487-.544-3.25.986-5.223 3.088C.32 7.975-1.705 17.338 2.008 23.253c.485.77 3.005 4.786 6.676 4.373 3.446-.388 5.613-4.417 6.18-5.469" mask="url(#b)"/></g><g transform="translate(0 .57)"><mask id="d" fill="#fff"><use xlink:href="#c"/></mask><path fill="#DFD6C4" d="M14.121 22.78c.699-1.02 1.785-2.604 1.783-4.584 0-1.573-.688-2.353-2.233-4.77-2.84-4.441-4.253-6.706-3.913-8.809.384-2.38 2.317-3.7 1.948-4.212-.425-.59-3.34.66-5.535 2.556C1.218 7.24-1.826 16.353 1.215 22.6c.397.815 2.462 5.057 6.158 5.008 3.47-.046 6.07-3.84 6.748-4.83" mask="url(#d)"/></g></g></svg>